# xmcd CD database file
#
# Track frame offsets:
#	150
#	17146
#	31097
#	49625
#	64015
#	76745
#	94102
#	106564
#	122317
#	138656
#	148942
#	159349
#	174174
#	192232
#
# Disc length: 2812 seconds
#
# Revision: 0
# Processed by: cddbd v1.5.2PL0 Copyright (c) Steve Scherf et al.
# Submitted via: CDex 1.51
#
DISCID=a50afa0e
DTITLE=Get up and dance special nr.63 - Get up and dance special nr.63
DYEAR=2008
DGENRE=Country
TTITLE0=My Sweet Summerlove
TTITLE1=Gotta Hitch
TTITLE2=Drives Me Crazy
TTITLE3=Jealous Heart
TTITLE4=Get A Life
TTITLE5=Call Me An Angel
TTITLE6=The Whoop
TTITLE7=Chilli Hot
TTITLE8=Gonna Catch You
TTITLE9=Mockingbird Cha
TTITLE10=Uncool
TTITLE11=Together 4 Ever
TTITLE12=Baker Street
TTITLE13=My Rock
EXTD=YEAR: 2008
EXTT0=
EXTT1=
EXTT2=
EXTT3=
EXTT4=
EXTT5=
EXTT6=
EXTT7=
EXTT8=
EXTT9=
EXTT10=
EXTT11=
EXTT12=
EXTT13=
PLAYORDER=
